Coordinates
version=1
nRows=25
nColumns=23
inDegrees=yes

Units are S.I. units (second, meters, Newtons, ...)
If the header above contains a line with 'inDegrees', this indicates whether rotational values are in degrees (yes) or radians (no).

endheader
time	pelvis_tilt	pelvis_list	pelvis_rotation	pelvis_tx	pelvis_ty	pelvis_tz	hip_flexion_r	hip_adduction_r	hip_rotation_r	knee_angle_r	knee_angle_r_beta	ankle_angle_r	subtalar_angle_r	mtp_angle_r	hip_flexion_l	hip_adduction_l	hip_rotation_l	knee_angle_l	knee_angle_l_beta	ankle_angle_l	subtalar_angle_l	mtp_angle_l
     22.50000000	     -8.21697609	      1.75307010	      2.38311437	      2.26789164	      1.03611573	      1.03655992	    -13.97381841	      2.09415154	    -18.50476022	     17.18235831	      0.29988873	     -3.11527469	     10.54150339	      0.00000000	     45.95933693	      2.38205748	      0.57557889	     96.30706299	      1.68087534	     -3.82871583	    -23.25504941	      0.00000000
     22.50666667	     -9.25328058	      2.91136848	      2.83792789	      2.27106976	      1.03939400	      1.03657042	    -14.62727723	      0.94409109	    -20.63241540	     16.43021048	      0.28676127	     -7.57328099	      9.77637242	      0.00000000	     47.28409966	      3.72230374	     -0.59497169	     92.60711728	      1.61629911	     -3.31830672	    -23.34629603	      0.00000000
     22.51333333	    -10.21809375	      3.89187655	      3.11402484	      2.27401486	      1.04262656	      1.03667828	    -15.10088494	     -0.12828705	    -22.72642801	     16.16449350	      0.28212363	    -11.69768324	      8.87246583	      0.00000000	     48.39575264	      4.74365238	     -1.82815345	     88.76603475	      1.54925957	     -2.75712345	    -23.33667362	      0.00000000
     22.52000000	    -11.11159304	      4.74028476	      3.27422242	      2.27656612	      1.04567834	      1.03678150	    -15.35060252	     -1.23402913	    -24.98409532	     16.53553120	      0.28859946	    -15.45861816	      7.66443543	      0.00000000	     49.32756037	      5.49834340	     -3.14435835	     84.80188173	      1.48007205	     -2.18180777	    -23.03360596	      0.00000000
     22.52666667	    -11.91052197	      5.47046893	      3.30254106	      2.27885089	      1.04851253	      1.03684840	    -15.46369719	     -2.37627120	    -27.20078674	     17.46695013	      0.30485579	    -18.61902949	      6.27044018	      0.00000000	     50.04518405	      6.01052830	     -4.55203609	     80.72932326	      1.40899249	     -1.58121037	    -22.45248399	      0.00000000
     22.53333333	    -12.65120574	      6.19215360	      3.23937671	      2.28071853	      1.05102661	      1.03671697	    -15.38310047	     -3.74957271	    -29.53033934	     19.10768561	      0.33349203	    -20.91935750	      5.16567583	      0.00000000	     50.58806616	      6.43758841	     -6.08974717	     76.51598060	      1.33545579	     -1.01360943	    -21.63525239	      0.00000000
     22.54000000	    -13.17796171	      6.74189548	      3.07122726	      2.28231578	      1.05345873	      1.03661505	    -15.44834934	     -4.86274976	    -30.95676086	     20.82793845	      0.36351610	    -22.64531458	      3.24488920	      0.00000000	     50.79784737	      6.60183554	     -7.67592009	     72.22795592	      1.26061564	     -0.32966734	    -20.26601488	      0.00000000
     22.54666667	    -13.57002177	      7.23104304	      2.88270285	      2.28363399	      1.05563816	      1.03630009	    -15.54604065	     -5.91731616	    -31.89731278	     22.79776413	      0.39789605	    -23.73657374	      1.37920742	      0.00000000	     50.75258228	      6.73020755	     -9.30137158	     67.82812722	      1.18382415	      0.30194109	    -18.54202499	      0.00000000
     22.55333333	    -13.79585592	      7.68058906	      2.55611407	      2.28465708	      1.05759342	      1.03594665	    -15.64588596	     -6.97667194	    -32.22862746	     25.08385109	      0.43779579	    -24.03743332	     -0.31131940	      0.00000000	     50.41713442	      6.72582888	    -11.11717810	     63.34050406	      1.10550035	      0.96852044	    -16.33673919	      0.00000000
     22.56000000	    -13.86536001	      8.01777168	      2.13597548	      2.28543087	      1.05925229	      1.03560027	    -15.73972656	     -7.90463857	    -31.93339189	     27.60464349	      0.48179192	    -23.73684909	     -1.52315196	      0.00000000	     49.82398232	      6.53132411	    -13.14003959	     58.85045566	      1.02713422	      1.83589059	    -13.28012667	      0.00000000
     22.56666667	    -13.76261417	      8.22991317	      1.75200774	      2.28598280	      1.06077345	      1.03510120	    -15.90901390	     -8.54280904	    -30.97891716	     30.14039641	      0.52604916	    -23.30092327	     -2.88341537	      0.00000000	     48.94881441	      6.33045290	    -15.17808983	     54.31580877	      0.94798970	      2.62992438	     -9.85283730	      0.00000000
     22.57333333	    -13.58632365	      8.39069187	      1.33473624	      2.28622701	      1.06197183	      1.03447752	    -15.95850087	     -9.09232916	    -29.57156078	     32.92188587	      0.57459530	    -22.77219520	     -4.14524400	      0.00000000	     47.90870265	      6.17582493	    -17.27193289	     49.73471472	      0.86803452	      3.28572955	     -6.23446202	      0.00000000
     22.58000000	    -13.16322691	      8.30585135	      0.91503709	      2.28628284	      1.06296509	      1.03395504	    -16.13150826	     -9.28627819	    -27.87480227	     35.79702199	      0.62477590	    -22.11921366	     -4.94912440	      0.00000000	     46.58905408	      5.77844266	    -19.56895455	     45.39094304	      0.79222141	      4.20139259	     -1.49980142	      0.00000000
     22.58666667	    -12.75309363	      8.25431971	      0.55593388	      2.28604577	      1.06347287	      1.03317447	    -16.12100377	     -9.52104473	    -26.16236773	     38.97073906	      0.68016771	    -21.57290630	     -5.58432644	      0.00000000	     45.24411259	      5.62914115	    -21.78816336	     41.07315403	      0.71686177	      4.92506095	      3.10608074	      0.00000000
     22.59333333	    -12.31051226	      8.20227043	      0.30576308	      2.28552145	      1.06348524	      1.03216007	    -16.02443806	     -9.74306330	    -24.59395004	     42.36974856	      0.73949162	    -21.23742621	     -6.03279752	      0.00000000	     43.86982377	      5.71960394	    -23.79949424	     36.87462591	      0.64358363	      5.56460248	      7.59522271	      0.00000000
     22.60000000	    -11.83380925	      8.13700957	      0.19973667	      2.28483774	      1.06300969	      1.03098686	    -15.89731917	     -9.94835586	    -23.32906282	     45.92328259	      0.80151248	    -21.05471433	     -6.15581566	      0.00000000	     42.49174095	      6.00802502	    -25.54962028	     32.91085177	      0.57440272	      6.21151335	     12.04159584	      0.00000000
     22.60666667	    -11.41694502	      8.19370569	      0.22955146	      2.28389559	      1.06190189	      1.02957767	    -15.61704805	    -10.30038253	    -22.34944276	     49.68799448	      0.86721910	    -21.08890744	     -6.34450292	      0.00000000	     41.19640019	      6.71832407	    -26.65257893	     29.03639821	      0.50678075	      6.63175269	     15.43043106	      0.00000000
     22.61333333	    -10.99045915	      8.34736506	      0.39297090	      2.28286762	      1.06032328	      1.02815638	    -15.32044282	    -10.76745120	    -21.70977024	     53.54562815	      0.93454751	    -21.33151279	     -6.42811443	      0.00000000	     39.89165958	      7.69479008	    -27.23484902	     25.36026080	      0.44262005	      6.98118482	     18.08316351	      0.00000000
     22.62000000	    -10.56576771	      8.72661723	      0.71258885	      2.28187896	      1.05816292	      1.02659903	    -15.04034853	    -11.53295963	    -21.50602061	     57.50139054	      1.00358859	    -21.62295296	     -6.32782829	      0.00000000	     38.53665132	      9.09778197	    -27.10565069	     21.78710910	      0.38025679	      7.10066344	     19.52057314	      0.00000000
     22.62666667	    -10.10887723	      8.99653507	      0.96095658	      2.28084375	      1.05569766	      1.02564446	    -14.70361682	    -12.08151142	    -21.11554947	     61.38998626	      1.07145739	    -22.34169540	     -7.05046047	      0.00000000	     37.21035410	     10.19994139	    -26.88543327	     18.81050215	      0.32830520	      7.12633862	     20.46759738	      0.00000000
     22.63333333	     -9.64434226	      9.68238588	      1.50740950	      2.28011378	      1.05275464	      1.02427854	    -14.54431928	    -13.18838613	    -21.45260667	     65.30859630	      1.13985004	    -22.86959801	     -7.17835688	      0.00000000	     35.55386556	     12.19495665	    -24.88017108	     15.37207564	      0.26829333	      6.59637529	     18.52377041	      0.00000000
     22.64000000	     -9.17699830	     10.16714871	      1.98013520	      2.27944961	      1.04939275	      1.02355003	    -14.31142604	    -13.98693725	    -21.57205382	     69.12213787	      1.20640889	    -23.62194587	     -8.02623822	      0.00000000	     34.16563473	     13.46415360	    -23.78550747	     13.25573293	      0.23135618	      6.16944368	     17.25970176	      0.00000000
     22.64666667	     -8.74410971	     10.45036198	      2.50811512	      2.27872315	      1.04549701	      1.02320526	    -13.98000259	    -14.47966627	    -21.63410045	     72.87150082	      1.27184762	    -24.44046514	     -9.33701762	      0.00000000	     33.30709417	     14.02800269	    -23.91781019	     12.89788591	      0.22511058	      6.24483704	     17.04455433	      0.00000000
     22.65333333	     -8.41369685	     10.84716534	      3.13894374	      2.27803844	      1.04111559	      1.02286159	    -13.55556047	    -15.13526733	    -21.87699503	     76.61281959	      1.33714595	    -25.16916666	    -10.67319476	      0.00000000	     32.67645891	     14.59207556	    -24.11266098	     13.27023607	      0.23160931	      6.05564431	     16.22001449	      0.00000000
     22.66000000	     -8.31618253	     11.29811656	      3.79977989	      2.27730487	      1.03611997	      1.02259982	    -12.81929355	    -15.88762956	    -22.08486474	     80.37742131	      1.40285065	    -25.78258953	    -12.22539029	      0.00000000	     32.45313502	     15.04048453	    -24.45663267	     14.44181900	      0.25205729	      5.78110831	     15.08956040	      0.00000000
